<svg id="Layer_1" data-name="Layer 1" xmlns="http://www.w3.org/2000/svg" viewBox="0 0 2446.04 2529.43"><defs><style>.cls-1{fill:#ec4e20;}.cls-2{fill:#4e64e1;}.cls-3,.cls-4{fill:#2e2b28;}.cls-4{font-size:130px;font-family:Arial-BoldMT, Arial;font-weight:700;}.cls-5{font-size:60px;}</style></defs><title>points_illustrator</title><path class="cls-1" d="M-74.87,437.67,2007.93-110,1980.34-402C2037.8-607.67,72.4-255.14-38.87-81.72-139.47,75.07-74.87,437.67-74.87,437.67Z" transform="translate(156.63 464.59)"/><path class="cls-2" d="M-83.29,439.07s2073-670.68,2115-542.95,70,383.51,70,383.51L-95.29,942.81Z" transform="translate(156.63 464.59)"/><path class="cls-3" d="M-95.29,942.81S1556.16,159.74,2088.93,249.74C2431.72,307.66,2231,947.11,2231,947.11l-2369.1,601.4Z" transform="translate(156.63 464.59)"/><path class="cls-1" d="M-29.28,1992.14l2202.22-570.93,17.54-521.33c57.46-205.63-2207.5,457.58-2318.77,631C-228.9,1687.66-29.28,1992.14-29.28,1992.14Z" transform="translate(156.63 464.59)"/><path class="cls-2" d="M-22.6,2004.64a11.76,11.76,0,0,1,6.83-16.76c182-57.4,2142.65-672.53,2182.71-550.74,38.4,116.76-8.45,544.68-16.78,617.29a11.76,11.76,0,0,1-11.79,10.42L7,2047a11.76,11.76,0,0,1-10.28-6.22Z" transform="translate(156.63 464.59)"/><circle class="cls-2" cx="1207.38" cy="1422.36" r="411.28"/><path class="cls-1" d="M271.83,1036.3c-1.67-27.44,4.35-51.86,7.5-76.56,4.45-34.94,9-69.81,9.94-105.12.49-17.69-4.45-31.5-17.42-43.77A1043.91,1043.91,0,0,0,154.38,714.5C142.92,706.46,131.91,698,123,687c-23.54-29-17.84-62.58,14.31-81.76,18.3-10.92,38.71-16.51,59.35-20.57,36.49-7.17,73.16-13.36,109.74-20.07a193,193,0,0,0,25.48-6.86c15.95-5.25,26.88-15.49,32.5-31.41,8.46-24,16.83-48,25.58-71.88,12.12-33.08,24.13-66.23,41.08-97.26,6.36-11.65,13.79-21.69,26.47-28.38,22.52-11.89,41.58-6,59.79,8,10.25,7.83,16.94,18.88,23.48,29.84,21.06,35.29,40.76,71.39,63,106,6.74,10.49,14.4,20.41,21,31,11,17.64,27.43,24.61,47.29,26.46,27.35,2.55,54.75,2.24,82.15,2.61,32.31.44,64.61.84,96.2,8.94a82.69,82.69,0,0,1,23.55,10c23.24,14.55,30.91,41.15,18.77,65.86a107.7,107.7,0,0,1-18.1,25.75c-27.16,29.24-54.39,58.43-81.34,87.87a396.14,396.14,0,0,0-34.83,43.58c-7.11,10.37-8.68,21.35-7,33.5,6.81,48.93,22,95.75,35.91,142.88,6.5,22,11.64,43.8,7.44,67.09-5.36,29.74-27.71,42.83-55.06,41.23a95,95,0,0,1-38.64-10.75c-29.56-15.46-60.88-26.8-91.6-39.54-12.45-5.16-24.38-11.39-36.6-17-6.44-3-13.11-5.4-19.72-8-15.86-6.17-30.5-4.1-44.42,5.82-44.68,31.84-93,58-139.12,87.5a113,113,0,0,1-34.11,15c-23,5.62-49.29-2.59-58.36-31.08A126.51,126.51,0,0,1,271.83,1036.3Z" transform="translate(156.63 464.59)"/><path class="cls-2" d="M1431.34,708.39c3.78-1.19,7.11-3.39,10.77-4.86,1.19-.48,1.25-1.54,1.41-2.55.56-3.46,1.1-6.92,1.72-10.85,2.46,2.62,4.7,4.89,6.8,7.28a4.61,4.61,0,0,0,5.18,1.71c3-.76,6.11-1,9.76-1.52-1.6,2.94-2.9,5.71-4.56,8.23a5.24,5.24,0,0,0-.1,6.35c1.56,2.52,2.72,5.29,4.25,8.36-3.9-.74-7.35-1.37-10.78-2.06a3.12,3.12,0,0,0-3.33,1.12c-2.35,2.6-5,5-7.7,7.67-.52-3.84-1.05-7.42-1.45-11a2.87,2.87,0,0,0-2-2.69c-3.4-1.32-6.28-3.75-9.88-4.68Zm26.56,6a2.13,2.13,0,0,0-.46-2c-1.75-2.34-1.81-4.63.05-7,.35-.43,1-1.16.6-1.55a2.17,2.17,0,0,0-1.89-.12c-3,1.2-4.9-.06-6.54-2.39a1.52,1.52,0,0,0-1.66-.82c.65,4.31-1.81,6.73-6,8.17,4.55,1.21,6.21,4.12,6.08,8.63Q1452,711.71,1457.9,714.43Z" transform="translate(156.63 464.59)"/><path class="cls-2" d="M1576.54,407.65l12.69,9.55q9.37,7.08,18.73,14.18a3.41,3.41,0,0,0,3.54.59c12.33-4.15,24.69-8.21,37.28-12.38-1.09,3.25-2.13,6.41-3.2,9.56-3.09,9-6.12,18.09-9.35,27.07a4.57,4.57,0,0,0,.84,4.88c7.31,9.75,14.54,19.57,21.79,29.37.34.46.6,1,1,1.7-10.87-.22-21.49-.44-32.11-.63-3-.05-6.48-.95-8.87.27s-3.71,4.56-5.46,7c-6.15,8.61-12.29,17.24-19,26.65-1-3.52-1.73-6.38-2.57-9.22-2.84-9.51-5.74-19-8.56-28.51a3.77,3.77,0,0,0-2.81-2.91c-11.66-3.62-23.27-7.36-34.89-11.09-.7-.22-1.55-.17-2.13-1.11q9.13-6.42,18.24-12.82,6.65-4.66,13.33-9.27a3.63,3.63,0,0,0,1.91-3.34C1576.77,434.23,1576.67,421.26,1576.54,407.65Zm74.17,79.75c-.73-1.1-1.15-1.81-1.64-2.48-5.68-7.71-11.32-15.43-17.08-23.08a4.59,4.59,0,0,1-.81-4.89c3.27-9.18,6.35-18.43,9.48-27.67.23-.69.77-1.37.34-2.21-1.25.35-2.51.64-3.72,1-8.83,3-17.67,5.9-26.48,8.92a3.58,3.58,0,0,1-3.77-.63q-9.42-7.27-19-14.37c-2.17-1.61-4.17-3.52-6.86-4.85.1,10.71.12,21.14.36,31.56a4.56,4.56,0,0,1-2.31,4.42c-3.59,2.39-7.09,4.9-10.62,7.38-5,3.51-10,7-15,10.58a4.55,4.55,0,0,0,2.49,1.15c9.28,3,18.57,5.95,27.88,8.83a3.74,3.74,0,0,1,2.84,2.87c2.16,7.46,4.46,14.88,6.75,22.29.85,2.74,1.82,5.43,2.83,8.41.73-.93,1.24-1.51,1.68-2.13,5.65-7.95,11.32-15.88,16.9-23.87a3.68,3.68,0,0,1,3.59-1.86c5.25.22,10.51.23,15.77.32Z" transform="translate(156.63 464.59)"/><path class="cls-2" d="M1485,550.79c-6.4-3.29-13.17-6.71-19.87-10.25a3.58,3.58,0,0,0-3.78-.27c-6.16,3.06-12.42,5.91-18.63,8.86a3.9,3.9,0,0,1-2.47.6c1.19-5.54,2.32-11.06,3.57-16.55,1.78-7.86,1.81-7.84-3.84-13.73-3.51-3.66-7-7.35-10.44-11-.39-.42-1.12-.79-.9-1.46.28-.89,1.18-.37,1.75-.44q10.13-1.1,20.28-2a4.58,4.58,0,0,0,4-2.65c3.74-6.47,7.78-12.77,11.48-18.77,2.07,4.66,4.57,10.27,7.06,15.89.66,1.49,1.33,3,1.89,4.52s2,1.91,3.47,2.19l20.23,3.83,2.12.43-10.35,9.38c-2.3,2.07-4.55,4.2-6.93,6.18a3.78,3.78,0,0,0-1.41,3.85C1483.17,536.83,1484.12,544.34,1485,550.79Zm-38.14-9.09a.6.6,0,0,0-.14.13s0,.09,0,.14l.09-.27c5.15-1.52,9.72-4.34,14.56-6.53a3.4,3.4,0,0,1,3.59.09c4.13,2.5,8.34,4.88,12.54,7.27.54.31,1,1,1.88.5-.63-4.94-1.18-9.91-1.93-14.85a4.71,4.71,0,0,1,1.72-4.94c3.39-2.8,6.58-5.83,9.83-8.8.52-.48,1.41-.76,1.26-1.88-4.8-.93-9.6-2-14.45-2.73-2.47-.37-3.66-1.55-4.56-3.77-1.84-4.57-4-9-5.77-13.05-2.21,3.47-4.8,6.78-6.52,10.49s-4.12,5.82-8.36,5.47a14,14,0,0,0-2.57.23l-10.46,1.14c4,4.28,7.66,8.2,11.38,12a3.57,3.57,0,0,1,1,3.65C1448.94,531.26,1447.38,536.38,1446.82,541.71Z" transform="translate(156.63 464.59)"/><path class="cls-2" d="M1495.57,602.66c-5.82-1.11-11.14-2-16.39-3.18a4.2,4.2,0,0,0-4.44,1.49c-3.68,3.83-7.48,7.55-11.62,11.71-.68-5-1.5-9.52-1.85-14.08-.26-3.35-1.14-5.65-4.6-7.07-4.43-1.82-8.57-4.35-13.21-6.76,5.06-2.43,9.7-4.76,14.44-6.87a5,5,0,0,0,3.43-4.49c.62-5.27,1.59-10.5,2.46-16,4,4.27,7.9,8.29,11.66,12.4a3.54,3.54,0,0,0,3.58,1.33c5.49-.92,11-1.72,17-2.64-2.82,5.2-5.39,10.05-8.09,14.83a3.76,3.76,0,0,0,0,4.23C1490.57,592.35,1492.9,597.32,1495.57,602.66Zm-41.9-17.74c3.54,1.83,6.49,3.41,9.5,4.87a3,3,0,0,1,1.85,2.78c.22,2.74.63,5.47,1,8.2.07.49.18,1.2.51,1.39.65.37,1-.37,1.43-.77,1.9-1.88,3.85-3.71,5.65-5.68a3.4,3.4,0,0,1,3.65-1.14c3.16.7,6.36,1.23,10.14,1.94-1.72-3.36-3.12-6.19-4.6-9a3.91,3.91,0,0,1,.05-4.32c1.64-2.68,3-5.5,4.85-8.83-3.41.53-6.14.83-8.81,1.42-2.41.53-4.22.21-5.85-1.88-1.75-2.24-3.9-4.18-6.22-6.61-.62,3.79-1.19,6.91-1.61,10.06a3.37,3.37,0,0,1-2.22,3.08C1460,581.7,1457.13,583.23,1453.67,584.91Z" transform="translate(156.63 464.59)"/><path class="cls-2" d="M1543.73,599c4.41-2.13,8.22-4.13,12.16-5.79a3.79,3.79,0,0,0,2.56-3.42c.6-4.33,1.31-8.64,2-13.37,3.37,3.55,6.52,6.79,9.56,10.14a3.38,3.38,0,0,0,3.6,1.14c4.31-.8,8.67-1.37,13.47-2.11-1.94,3.54-3.55,6.92-5.58,10-1.82,2.8-1.86,5.16,0,8a60.08,60.08,0,0,1,4,7.78c.26.55,1,1.18.46,1.85s-1.31.09-1.94,0c-3.64-.62-7.29-1.23-10.89-2a3.1,3.1,0,0,0-3.38,1c-3.11,3.26-6.36,6.39-9.84,9.86-.64-4.8-1.3-9.12-1.73-13.47a3.47,3.47,0,0,0-2.09-3.18C1552.11,603.34,1548.17,601.26,1543.73,599Zm34.76,8.53c-1.11-2.22-1.9-4.12-3-5.85a3.82,3.82,0,0,1,.09-4.53c1.08-1.69,1.93-3.53,3.08-5.69-2.58.38-4.63.54-6.6,1a3.41,3.41,0,0,1-3.85-1.25c-1.37-1.6-2.9-3.05-4.68-4.9-.41,2.44-.87,4.36-1,6.3a4,4,0,0,1-2.88,3.78c-1.8.71-3.5,1.68-5.66,2.75,2.15,1.1,3.84,2.14,5.66,2.84a4,4,0,0,1,2.74,3.9c.15,2,.5,3.95.82,6.37,1.91-1.9,3.51-3.34,4.91-5a3.2,3.2,0,0,1,3.62-1.1C1573.82,606.73,1575.95,607,1578.49,607.5Z" transform="translate(156.63 464.59)"/><path class="cls-2" d="M1457.9,714.43q-5.89-2.73-9.81,3c.13-4.51-1.53-7.43-6.08-8.63,4.18-1.43,6.63-3.86,6-8.17a1.52,1.52,0,0,1,1.66.82c1.64,2.32,3.59,3.59,6.54,2.39a2.17,2.17,0,0,1,1.89.12c.4.39-.25,1.12-.6,1.55-1.87,2.33-1.8,4.61-.05,7A2.13,2.13,0,0,1,1457.9,714.43Z" transform="translate(156.63 464.59)"/><path class="cls-2" d="M1650.7,487.4l-16.36-.25c-5.26-.09-10.52-.11-15.77-.32a3.68,3.68,0,0,0-3.59,1.86c-5.58,8-11.25,15.93-16.9,23.87-.44.62-.95,1.2-1.68,2.13-1-3-2-5.68-2.83-8.41-2.3-7.42-4.59-14.84-6.75-22.29a3.74,3.74,0,0,0-2.84-2.87c-9.31-2.88-18.59-5.86-27.88-8.83a4.55,4.55,0,0,1-2.49-1.15c5-3.54,10-7.07,15-10.58,3.53-2.48,7-5,10.62-7.38a4.56,4.56,0,0,0,2.31-4.42c-.24-10.42-.26-20.84-.36-31.56,2.69,1.33,4.69,3.23,6.86,4.85q9.56,7.09,19,14.37a3.58,3.58,0,0,0,3.77.63c8.81-3,17.65-6,26.48-8.92,1.21-.41,2.47-.69,3.72-1,.43.84-.11,1.52-.34,2.21-3.13,9.23-6.21,18.48-9.48,27.67a4.59,4.59,0,0,0,.81,4.89c5.76,7.65,11.4,15.37,17.08,23.08C1649.55,485.59,1650,486.3,1650.7,487.4Z" transform="translate(156.63 464.59)"/><path class="cls-2" d="M1446.82,541.71c.55-5.32,2.11-10.45,3.16-15.68a3.57,3.57,0,0,0-1-3.65c-3.73-3.82-7.35-7.74-11.38-12l10.46-1.14a14,14,0,0,1,2.57-.23c4.24.34,6.59-1.67,8.36-5.47s4.32-7,6.52-10.49c1.8,4,3.92,8.48,5.77,13.05.89,2.22,2.09,3.4,4.56,3.77,4.85.72,9.65,1.8,14.45,2.73.15,1.12-.74,1.4-1.26,1.88-3.25,3-6.44,6-9.83,8.8a4.71,4.71,0,0,0-1.72,4.94c.75,4.94,1.3,9.9,1.93,14.85-.85.5-1.34-.2-1.88-.5-4.2-2.39-8.4-4.77-12.54-7.27a3.4,3.4,0,0,0-3.59-.09c-4.85,2.2-9.42,5-14.56,6.53Z" transform="translate(156.63 464.59)"/><path class="cls-2" d="M1446.82,541.7l-.09.27s-.06-.11,0-.14a.6.6,0,0,1,.14-.13Z" transform="translate(156.63 464.59)"/><path class="cls-2" d="M1453.67,584.91c3.46-1.68,6.33-3.22,9.32-4.48a3.37,3.37,0,0,0,2.22-3.08c.42-3.14,1-6.27,1.61-10.06,2.32,2.43,4.47,4.37,6.22,6.61,1.63,2.09,3.45,2.41,5.85,1.88,2.67-.59,5.4-.89,8.81-1.42-1.81,3.32-3.21,6.15-4.85,8.83a3.91,3.91,0,0,0-.05,4.32c1.48,2.78,2.88,5.6,4.6,9-3.77-.71-7-1.24-10.14-1.94a3.4,3.4,0,0,0-3.65,1.14c-1.8,2-3.75,3.8-5.65,5.68-.4.4-.77,1.14-1.43.77-.33-.19-.44-.9-.51-1.39-.37-2.73-.79-5.46-1-8.2a3,3,0,0,0-1.85-2.78C1460.16,588.33,1457.21,586.74,1453.67,584.91Z" transform="translate(156.63 464.59)"/><path class="cls-2" d="M1578.49,607.5c-2.54-.47-4.66-.77-6.72-1.29a3.2,3.2,0,0,0-3.62,1.1c-1.4,1.61-3,3-4.91,5-.32-2.42-.66-4.39-.82-6.37a4,4,0,0,0-2.74-3.9c-1.82-.71-3.5-1.74-5.66-2.84,2.17-1.07,3.86-2,5.66-2.75a4,4,0,0,0,2.88-3.78c.15-1.94.6-3.85,1-6.3,1.78,1.85,3.32,3.3,4.68,4.9a3.41,3.41,0,0,0,3.85,1.25c2-.49,4-.64,6.6-1-1.16,2.16-2,4-3.08,5.69a3.82,3.82,0,0,0-.09,4.53C1576.58,603.38,1577.38,605.27,1578.49,607.5Z" transform="translate(156.63 464.59)"/><path class="cls-1" d="M217.61,492.27a2.6,2.6,0,0,1-1.66-2.33q-1.46-13.79-2.88-27.57-1.2-11.45-2.4-22.9a4.06,4.06,0,0,0-.89-1.8l15.46-10.3c5.45-3.63,10.9-7.26,16.32-10.93a59.08,59.08,0,0,0,5.38-3.69l.35-.1.05.18.22.12h0c.06.3.33.41.53.57q5.12,4.07,10.24,8.12L277.77,437l15.95,12.6q8,6.32,16,12.62a30.43,30.43,0,0,0,4,3c-.92,1.53-1.93,1.95-3.83,1.55L283,461l-22-4.69a3.82,3.82,0,0,0-1.75,0L247,413c-1,2.78-1.93,5.33-2.87,7.87q-5,13.51-10,27-3.51,9.49-7,19c-2.66,7.21-5.31,14.43-8,21.62A15.57,15.57,0,0,1,217.61,492.27Z" transform="translate(156.63 464.59)"/><path class="cls-1" d="M247.35,412.83l-.05-.18.13-.21q6.68-4.42,13.35-8.84,6-4,12.07-8.06l19.07-12.73c3.66-2.44,7.29-4.91,11-7.36q7-4.7,14.07-9.37a3,3,0,0,1,.5,4q-5,8.69-10,17.36l-10.34,17.9c-1.49,2.59-3,5.17-4.48,7.76-.29.51-.51,1.06-.77,1.59a1.7,1.7,0,0,0-.94-.13L274.26,414c-6.25-.25-12.5-.52-18.75-.76-2.65-.1-5.3-.16-8-.24h0Z" transform="translate(156.63 464.59)"/><path class="cls-1" d="M217.61,492.27a15.57,15.57,0,0,0,1.54-3.73c2.7-7.2,5.35-14.41,8-21.62q3.5-9.49,7-19,5-13.51,10-27c.94-2.54,1.86-5.09,2.87-7.87l12.19,43.29a4.66,4.66,0,0,0-1.45,1l-36.23,34.34C220.24,492.89,218.94,493.1,217.61,492.27Z" transform="translate(156.63 464.59)"/><path class="cls-1" d="M246.95,412.76a59.08,59.08,0,0,1-5.38,3.69c-5.42,3.67-10.87,7.29-16.32,10.93l-15.46,10.3c-2.49-1.55-5.11-2.87-7.67-4.28-4.83-2.64-9.67-5.26-14.51-7.88l-22.77-12.39a3,3,0,0,1-1.8-3.49,2,2,0,0,1,1-.1l16.8.63,22.47.89,22.29.89,18.4.74A18.5,18.5,0,0,0,246.95,412.76Z" transform="translate(156.63 464.59)"/><path class="cls-1" d="M246.95,412.76a18.5,18.5,0,0,1-3-.07l-18.4-.74L203.26,411l-22.47-.89-16.8-.63a2,2,0,0,0-1,.1c.21-1.69,1.56-2.24,2.86-2.82l21.26-9.47L207,388.55c1.16-.51,2.32-1,3.48-1.54a6.92,6.92,0,0,0,1.9-1.26c.45-.12.7.2,1,.44l13.95,11,14.1,11.11,5.46,4.3c-.07-.54-.25-.9-.13-1.27a1.85,1.85,0,0,0,.68-1q.85-2.34,1.72-4.67l2.43-6.53c.44-1.19,1-2.35,1.32-3.56.45-1.51,1.06-2.94,1.6-4.41.41-1.12.91-2.22,1.26-3.36s.86-2.28,1.26-3.43.89-2.22,1.26-3.36.85-2.35,1.29-3.51.91-2.45,1.37-3.67a7.7,7.7,0,0,1,1.2-2.48l.18.15c-.16.5-.31,1-.49,1.51l-6.92,18.65q-3.72,10-7.42,20.07c-.09.23-.3.46,0,.71l-.13.21Z" transform="translate(156.63 464.59)"/><path class="cls-1" d="M247.56,412.95c2.65.08,5.3.13,8,.24,6.25.24,12.5.52,18.75.76l16.62.64a1.7,1.7,0,0,1,.94.13c-.21,1.72.82,3,1.49,4.46,3.7,7.85,7.45,15.68,11.18,23.52q4.63,9.72,9.26,19.43a3.11,3.11,0,0,1,0,3,30.43,30.43,0,0,1-4-3q-8-6.29-16-12.62L277.77,437l-19.43-15.31q-5.13-4-10.24-8.12C247.89,413.36,247.62,413.24,247.56,412.95Z" transform="translate(156.63 464.59)"/><path class="cls-1" d="M246.73,411.34c-.12.37.06.74.13,1.27l-5.46-4.3-14.1-11.11-13.95-11c-.3-.24-.55-.56-1-.44,1-2.5,1.19-5.17,1.69-7.77,1.39-7.17,2.69-14.36,4-21.54s2.66-14.3,4-21.45a3.05,3.05,0,0,1,2.31-2.72c.09.4.16.81.28,1.21,4.47,15.89,8.91,31.8,13.43,47.68C240.95,391.22,243.53,401.37,246.73,411.34Z" transform="translate(156.63 464.59)"/><path class="cls-1" d="M246.73,411.34c-3.2-10-5.79-20.12-8.66-30.19-4.52-15.88-9-31.78-13.43-47.68-.11-.4-.18-.8-.28-1.21a3,3,0,0,1,3.41,1.06l26.53,29.45,7.05,7.85c.24.26.51.49.76.73a7.7,7.7,0,0,0-1.2,2.48c-.46,1.22-.91,2.45-1.37,3.67s-.9,2.32-1.29,3.51-.86,2.23-1.26,3.36-.91,2.26-1.26,3.43-.84,2.24-1.26,3.36c-.54,1.47-1.15,2.91-1.6,4.41-.36,1.21-.88,2.38-1.32,3.56l-2.43,6.53q-.87,2.33-1.72,4.67A1.85,1.85,0,0,1,246.73,411.34Z" transform="translate(156.63 464.59)"/><path class="cls-1" d="M247.42,412.45c-.27-.25-.05-.48,0-.71q3.71-10,7.42-20.07L261.8,373c.18-.5.33-1,.49-1.51,1.74.6,3.46,0,5.16-.17,6.83-.85,13.65-1.77,20.47-2.66l19-2.5c2.52-.33,5-.68,7.56-1a2.66,2.66,0,0,1,2.48.9q-7,4.68-14.07,9.37c-3.66,2.44-7.3,4.91-11,7.36l-19.07,12.73q-6,4-12.07,8.06Q254.11,408,247.42,412.45Z" transform="translate(156.63 464.59)"/><path class="cls-1" d="M247.35,412.83l.22.12Z" transform="translate(156.63 464.59)"/><path class="cls-3" d="M1598.54,1250.59a2.46,2.46,0,0,1-.26-2.69q5.31-12,10.66-23.94l8.84-19.89a3.83,3.83,0,0,0,.12-1.9l17.53-1.13c6.18-.41,12.35-.8,18.53-1.25a55.85,55.85,0,0,0,6.15-.48l.33.08,0,.17.12.2h0c-.09.27.07.49.16.72q2.27,5.75,4.56,11.49,4.34,10.86,8.69,21.71,3.57,8.92,7.12,17.85t7.18,17.91a28.77,28.77,0,0,0,1.86,4.36c-1.48.82-2.5.69-3.86-.54l-19.37-17.42L1651,1241.6a3.61,3.61,0,0,0-1.45-.81l10.45-41.21c-2.15,1.8-4.1,3.46-6.07,5.09l-20.94,17.4q-7.35,6.12-14.69,12.25c-5.58,4.65-11.16,9.31-16.77,13.93A14.72,14.72,0,0,1,1598.54,1250.59Z" transform="translate(156.63 464.59)"/><path class="cls-3" d="M1660.4,1199.56l0-.17.2-.11,15.11-.94,13.69-.91,21.63-1.43,12.44-.86,15.95-1a2.88,2.88,0,0,1-1.49,3.53l-16.41,9.49-16.92,9.78c-2.44,1.41-4.89,2.82-7.33,4.24-.48.28-.92.62-1.38.94-.15-.3-.46-.4-.71-.55l-13.31-8.37c-5-3.15-10-6.33-15-9.47-2.12-1.34-4.27-2.63-6.4-3.95h0Z" transform="translate(156.63 464.59)"/><path class="cls-3" d="M1598.54,1250.59a14.72,14.72,0,0,0,3-2.33c5.61-4.62,11.19-9.28,16.77-13.93q7.35-6.12,14.69-12.25l20.94-17.4c2-1.64,3.92-3.29,6.07-5.09l-10.45,41.21a4.4,4.4,0,0,0-1.66.13l-45.89,11A2.79,2.79,0,0,1,1598.54,1250.59Z" transform="translate(156.63 464.59)"/><path class="cls-3" d="M1660.11,1199.3a55.85,55.85,0,0,1-6.15.48c-6.17.44-12.35.84-18.53,1.25l-17.53,1.13c-1.3-2.45-2.83-4.76-4.27-7.13-2.71-4.44-5.44-8.87-8.16-13.31q-6.4-10.45-12.8-20.9a2.87,2.87,0,0,1,.17-3.71,1.93,1.93,0,0,1,.83.37l13.47,8.45,18,11.33,17.83,11.25,14.72,9.29A17.49,17.49,0,0,0,1660.11,1199.3Z" transform="translate(156.63 464.59)"/><path class="cls-3" d="M1660.11,1199.3a17.49,17.49,0,0,1-2.42-1.48l-14.72-9.29-17.83-11.25-18-11.33-13.47-8.45a1.93,1.93,0,0,0-.83-.37c1-1.29,2.33-1.1,3.67-1l21.88,2.28,20.38,2.16,3.58.38a6.54,6.54,0,0,0,2.15-.13c.43.11.48.49.61.83q3.11,7.8,6.23,15.6l6.3,15.75,2.44,6.1c.19-.47.22-.85.49-1.1a1.75,1.75,0,0,0,1-.49l3.61-3,5.07-4.2c.92-.76,1.9-1.47,2.76-2.29,1.08-1,2.26-1.91,3.39-2.86.87-.73,1.8-1.39,2.62-2.16s1.78-1.46,2.65-2.22,1.78-1.4,2.62-2.16,1.8-1.52,2.71-2.27l2.85-2.36a7.28,7.28,0,0,1,2.15-1.47l.08.2c-.37.34-.73.69-1.12,1l-14.48,12L1661,1198.71c-.18.15-.46.24-.36.57l-.2.11Z" transform="translate(156.63 464.59)"/><path class="cls-3" d="M1660.52,1199.75c2.13,1.31,4.28,2.61,6.4,3.95,5,3.15,10,6.32,15,9.47l13.31,8.37c.25.16.56.26.71.55-1,1.31-.77,2.88-.89,4.36-.68,8.18-1.3,16.36-1.94,24.55q-.8,10.14-1.59,20.29a2.94,2.94,0,0,1-1.43,2.5,28.77,28.77,0,0,1-1.86-4.36q-3.61-8.94-7.18-17.91t-7.12-17.85q-4.34-10.86-8.69-21.71-2.29-5.74-4.56-11.49C1660.59,1200.24,1660.43,1200,1660.52,1199.75Z" transform="translate(156.63 464.59)"/><path class="cls-3" d="M1660.6,1198c-.28.25-.3.63-.49,1.1l-2.44-6.1-6.3-15.75q-3.12-7.8-6.23-15.6c-.13-.34-.18-.72-.61-.83a41,41,0,0,0,5.06-5.57c4.52-5.22,9-10.49,13.46-15.74s8.93-10.46,13.39-15.69a2.89,2.89,0,0,1,3.17-1.14c-.12.37-.25.74-.34,1.12-3.84,15.13-7.71,30.25-11.5,45.39C1665.35,1178.83,1662.68,1188.36,1660.6,1198Z" transform="translate(156.63 464.59)"/><path class="cls-3" d="M1660.6,1198c2.08-9.68,4.75-19.21,7.16-28.81,3.79-15.14,7.66-30.26,11.5-45.39.1-.38.23-.75.34-1.12a2.86,2.86,0,0,1,2.29,2.48q3.91,18.32,7.83,36.64c.69,3.25,1.38,6.51,2.07,9.76.07.32.18.64.28,1a7.28,7.28,0,0,0-2.15,1.47l-2.85,2.36c-.91.75-1.84,1.48-2.71,2.27s-1.76,1.42-2.62,2.16-1.81,1.42-2.65,2.22-1.75,1.44-2.62,2.16c-1.13.95-2.31,1.84-3.39,2.86-.87.82-1.84,1.53-2.76,2.29l-5.07,4.2-3.61,3A1.75,1.75,0,0,1,1660.6,1198Z" transform="translate(156.63 464.59)"/><path class="cls-3" d="M1660.64,1199.28c-.1-.33.18-.42.36-.57l15.55-12.93,14.48-12c.39-.32.75-.67,1.12-1,1.14,1.32,2.81,1.67,4.31,2.3,6,2.52,12,5,18,7.48l16.72,6.91c2.22.92,4.45,1.82,6.65,2.76a2.52,2.52,0,0,1,1.6,1.91l-15.95,1-12.44.86-21.63,1.43-13.69.91Z" transform="translate(156.63 464.59)"/><path class="cls-3" d="M1660.4,1199.56l.12.2Z" transform="translate(156.63 464.59)"/><path class="cls-3" d="M1076.25,1540c5.48-20.17,15.77-36.3,24.06-53.32,11.72-24.08,23.47-48.1,32.77-73.3,4.66-12.62,4.47-23.78-1.89-35.78a793.84,793.84,0,0,0-61.15-98c-6.3-8.59-12.17-17.37-15.91-27.44-9.89-26.63,2.4-49.42,30.23-55.41,15.85-3.41,31.9-2.47,47.76-.36,28,3.73,56,8.2,83.94,12.28a146.76,146.76,0,0,0,20,1.26c12.77.1,23.14-4.61,31.06-14.71,11.94-15.22,23.82-30.48,35.94-45.55,16.79-20.88,33.52-41.83,53.29-60.05,7.42-6.84,15.21-12.26,26-14,19.12-3.08,31.4,5.84,41.13,20.3,5.48,8.14,7.6,17.73,9.65,27.22,6.57,30.55,12,61.36,19.54,91.69,2.3,9.2,5.4,18.21,7.57,27.44,3.62,15.38,13.76,24.41,27.62,30.58,19.08,8.5,38.89,15,58.54,21.9,23.17,8.18,46.34,16.34,67.12,29.88a62.88,62.88,0,0,1,14.54,12.92c13.19,16.14,12.24,37.18-2.52,52a81.9,81.9,0,0,1-19.31,14.14c-26.69,14.45-53.42,28.84-80,43.48a301.24,301.24,0,0,0-35.71,22.9c-7.65,5.74-11.45,13.27-13.19,22.43-7,36.91-7.5,74.33-8.94,111.67-.67,17.41-2.29,34.39-11,50.14-11.11,20.12-30.39,24.11-49.71,16.29a72.23,72.23,0,0,1-25.21-17.16c-17.53-18.34-37.33-34.14-56.35-50.8-7.71-6.75-14.79-14.14-22.22-21.16-3.92-3.7-8.13-7.08-12.26-10.54-9.92-8.31-21-10.38-33.42-6.63-39.95,12-81.1,19.1-121.53,29.13a85.9,85.9,0,0,1-28.22,2.48c-17.92-1.55-34.88-13.88-34.47-36.61A96.21,96.21,0,0,1,1076.25,1540Z" transform="translate(156.63 464.59)"/><path class="cls-2" d="M807.9,1486.26c-.25-4.22-1.67-8.23-2.24-12.4-.19-1.36-1.27-1.69-2.27-2.12l-10.78-4.59c3.35-1.87,6.27-3.6,9.29-5.15a4.92,4.92,0,0,0,3.11-4.92c0-3.29.57-6.58,1-10.49,2.63,2.42,5.15,4.47,7.34,6.84a5.59,5.59,0,0,0,6.54,1.74c3-1,6.18-1.44,9.75-2.24-1.77,3.84-3.32,7.24-4.92,10.62a3.32,3.32,0,0,0,.3,3.73c2.08,3.11,3.86,6.42,5.95,10-4.11-.46-7.95-.83-11.77-1.35a3.06,3.06,0,0,0-3.3,1.34c-2.25,3.18-5.5,5.53-7.4,9ZM821,1460.35a2.27,2.27,0,0,0-2.18,0c-2.87,1.2-5.25.68-7.18-1.85-.36-.47-.95-1.33-1.45-1a2.31,2.31,0,0,0-.61,1.93c.48,3.36-1.33,5.05-4.16,6.15a1.62,1.62,0,0,0-1.27,1.51c4.63.45,6.5,3.61,6.9,8.31,2.42-4.39,5.87-5.35,10.5-4.06Q816.69,1465.72,821,1460.35Z" transform="translate(156.63 464.59)"/><path class="cls-2" d="M534.33,1258.3c4.68-3.79,8.92-7.23,13.16-10.66q9.75-7.87,19.51-15.71a3.64,3.64,0,0,0,1.53-3.51c-1.11-13.83-2.11-27.66-3.17-41.77,3.09,2,6.08,3.86,9.06,5.78,8.55,5.53,17.13,11,25.59,16.67a4.87,4.87,0,0,0,5.27.39c12-5,24-10,36-14.94.56-.23,1.16-.37,2-.64-3,11.19-6,22.12-9,33.05-.83,3.09-2.65,6.46-2,9.24s3.76,5,5.84,7.46c7.32,8.59,14.65,17.17,22.66,26.54-3.89.1-7,.13-10.2.28-10.57.48-21.14,1-31.71,1.48a4,4,0,0,0-3.74,2.15c-6.75,11.12-13.63,22.17-20.49,33.23-.41.66-.58,1.56-1.7,1.91q-4.28-11.11-8.55-22.18-3.1-8.08-6.15-16.18a3.88,3.88,0,0,0-3-2.84C561.88,1264.92,548.45,1261.67,534.33,1258.3ZM636,1202.19c-1.33.47-2.17.72-3,1.06-9.44,3.88-18.89,7.73-28.29,11.7a4.9,4.9,0,0,1-5.27-.43c-8.65-5.76-17.43-11.34-26.17-17-.65-.42-1.22-1.15-2.2-.92,0,1.39,0,2.76.12,4.12.77,9.9,1.53,19.8,2.38,29.7a3.81,3.81,0,0,1-1.63,3.73q-10,7.87-19.77,15.92c-2.23,1.83-4.72,3.4-6.79,5.85,11.11,2.67,21.9,5.34,32.74,7.79a4.86,4.86,0,0,1,4,3.53c1.54,4.33,3.23,8.61,4.89,12.9,2.34,6.07,4.7,12.13,7.07,18.24,1.1-.59,1.37-1.53,1.84-2.28,5.47-8.84,11-17.67,16.34-26.56a4,4,0,0,1,3.71-2.19c8.27-.31,16.54-.77,24.81-1.22,3-.17,6.09-.48,9.44-.76-.77-1-1.24-1.67-1.77-2.29-6.76-7.9-13.5-15.82-20.33-23.65a3.93,3.93,0,0,1-1-4.2c1.58-5.38,3-10.81,4.41-16.23S634.43,1208.12,636,1202.19Z" transform="translate(156.63 464.59)"/><path class="cls-2" d="M658.73,1390c-5.06,5.77-10.35,11.89-15.74,17.91-1.06,1.18-1.63,2.1-1.25,3.84,1.57,7.16,2.91,14.38,4.35,21.57a4.16,4.16,0,0,1,0,2.71c-5.43-2.66-10.84-5.26-16.2-8-7.67-3.88-7.65-3.9-15.2.42-4.69,2.68-9.41,5.31-14.13,7.94-.54.3-1.1,1-1.74.55-.84-.52-.08-1.32,0-1.92q1.48-10.77,3.14-21.51a4.88,4.88,0,0,0-1.72-4.78c-5.73-5.54-11.2-11.35-16.45-16.73,5.36-.94,11.81-2.07,18.27-3.19,1.72-.3,3.44-.61,5.17-.78,1.89-.19,2.5-1.59,3.16-3q4.59-10,9.19-19.94c.25-.55.52-1.09,1-2.08,2.47,4.62,4.76,8.87,7,13.14,1.55,2.91,3.16,5.8,4.6,8.77a4,4,0,0,0,3.62,2.45C643.83,1388.28,651.84,1389.24,658.73,1390Zm-19.26,37.1a.64.64,0,0,0,.1.18s.1,0,.15,0l-.26-.17c-.24-5.72-2-11.18-3-16.76a3.62,3.62,0,0,1,1-3.69c3.65-3.63,7.2-7.37,10.76-11.09.46-.48,1.3-.81,1-1.81-5.28-.63-10.56-1.34-15.86-1.84-2.2-.21-3.65-.93-4.67-3.06-2-4.23-4.33-8.32-6.56-12.45-.36-.67-.42-1.65-1.62-1.79-2.2,4.73-4.56,9.41-6.56,14.25-1,2.46-2.55,3.39-5.08,3.74-5.2.73-10.36,1.77-15,2.59,3,3.18,5.77,6.72,9.17,9.46s5,5.77,3.5,10.07a14.9,14.9,0,0,0-.43,2.72c-.49,3.55-1,7.11-1.53,11.12,5.47-3.07,10.47-5.8,15.38-8.67a3.8,3.8,0,0,1,4-.11C629.21,1422.26,634.11,1425.2,639.47,1427.14Z" transform="translate(156.63 464.59)"/><path class="cls-2" d="M715.13,1392.47c-2.65,5.73-5,11-7.53,16.14a4.47,4.47,0,0,0,.39,5c3,4.8,5.88,9.69,9.11,15-5.34-.59-10.24-.91-15-1.73-3.54-.6-6.14-.28-8.5,2.93-3,4.11-6.71,7.74-10.41,11.92-1.2-5.86-2.41-11.27-3.38-16.72a5.38,5.38,0,0,0-3.75-4.71c-5.29-2-10.45-4.36-15.92-6.69,5.46-3.07,10.61-6,15.85-8.86a3.78,3.78,0,0,0,2.3-3.36c.46-5.92,1.06-11.82,1.66-18.26,4.65,4.27,9,8.18,13.25,12.2a4,4,0,0,0,4.37,1.1C703.17,1395,708.92,1393.85,715.13,1392.47Zm-29.19,38.76c2.8-3.19,5.21-5.83,7.5-8.57a3.16,3.16,0,0,1,3.35-1.19c2.89.48,5.82.76,8.74,1.08.53.06,1.29.13,1.57-.17.55-.58-.12-1.15-.43-1.68-1.45-2.45-2.84-4.94-4.42-7.31a3.63,3.63,0,0,1-.24-4.08c1.54-3.09,2.92-6.27,4.63-10-3.92.91-7.21,1.63-10.47,2.44a4.17,4.17,0,0,1-4.46-1.17c-2.34-2.39-4.91-4.57-7.88-7.3-.33,3.66-.73,6.57-.81,9.48-.07,2.63-.88,4.42-3.46,5.57-2.77,1.23-5.33,3-8.45,4.73,3.76,1.62,6.84,3,10,4.27a3.59,3.59,0,0,1,2.61,3.09C684.25,1423.85,685.1,1427.22,685.94,1431.23Z" transform="translate(156.63 464.59)"/><path class="cls-2" d="M723.76,1341.7c-1.06-5.12-2.14-9.57-2.84-14.08a4,4,0,0,0-2.88-3.53c-4.32-1.74-8.6-3.59-13.31-5.56,4.55-2.56,8.71-5,13-7.27a3.61,3.61,0,0,0,2.11-3.43c.28-4.67.82-9.32,1.3-14.48,3.16,2.93,6.24,5.47,8.94,8.37,2.42,2.61,4.86,3.26,8.23,2.05a64.07,64.07,0,0,1,9.08-2.12c.64-.13,1.48-.74,2,0s-.24,1.38-.51,2c-1.58,3.61-3.15,7.22-4.92,10.73a3.3,3.3,0,0,0,.14,3.75c2.57,4.06,5,8.23,7.65,12.73-5.13-.58-9.78-1-14.38-1.69a3.7,3.7,0,0,0-3.83,1.34C730.46,1334.16,727.28,1337.7,723.76,1341.7Zm17.81-33.75c-2.59.57-4.75.9-6.81,1.55a4.07,4.07,0,0,1-4.66-1.26c-1.47-1.55-3.15-2.9-5.09-4.66-.27,2.76-.64,4.93-.65,7.1a3.64,3.64,0,0,1-2.29,3.66c-2,1-3.91,2.21-6.28,3.58,2.42,1.05,4.28,2,6.25,2.67a4.26,4.26,0,0,1,3.17,4c.26,2,.83,4.05,1.38,6.57,1.69-1.94,3.2-3.42,4.4-5.12a4.28,4.28,0,0,1,4.75-1.83c2.09.36,4.21.51,6.8.8-1.48-2.47-2.55-4.49-3.85-6.36a3.41,3.41,0,0,1-.2-4C739.57,1312.57,740.43,1310.46,741.57,1307.95Z" transform="translate(156.63 464.59)"/><path class="cls-2" d="M821,1460.35q-4.35,5.39.55,10.92c-4.63-1.3-8.08-.34-10.5,4.06-.4-4.7-2.27-7.86-6.9-8.31a1.62,1.62,0,0,1,1.27-1.51c2.83-1.09,4.64-2.78,4.16-6.15a2.31,2.31,0,0,1,.61-1.93c.51-.31,1.09.55,1.45,1,1.93,2.53,4.31,3.05,7.18,1.85A2.27,2.27,0,0,1,821,1460.35Z" transform="translate(156.63 464.59)"/><path class="cls-2" d="M636,1202.19c-1.58,5.93-3,11.4-4.49,16.86s-2.83,10.85-4.41,16.23a3.93,3.93,0,0,0,1,4.2c6.83,7.84,13.57,15.75,20.33,23.65.53.62,1,1.29,1.77,2.29-3.35.27-6.39.59-9.44.76-8.27.46-16.54.91-24.81,1.22a4,4,0,0,0-3.71,2.19c-5.39,8.89-10.87,17.72-16.34,26.56-.47.76-.73,1.7-1.84,2.28-2.37-6.11-4.73-12.17-7.07-18.24-1.65-4.29-3.35-8.57-4.89-12.9a4.86,4.86,0,0,0-4-3.53c-10.84-2.45-21.63-5.12-32.74-7.79,2.07-2.44,4.56-4,6.79-5.85q9.81-8.06,19.77-15.92a3.81,3.81,0,0,0,1.63-3.73c-.84-9.9-1.61-19.8-2.38-29.7-.11-1.36-.08-2.73-.12-4.12,1-.23,1.55.5,2.2.92,8.74,5.62,17.52,11.2,26.17,17a4.9,4.9,0,0,0,5.27.43c9.4-4,18.85-7.82,28.29-11.7C633.83,1202.92,634.68,1202.66,636,1202.19Z" transform="translate(156.63 464.59)"/><path class="cls-2" d="M639.47,1427.14c-5.36-1.95-10.26-4.89-15.4-7.32a3.8,3.8,0,0,0-4,.11c-4.92,2.87-9.91,5.6-15.38,8.67.55-4,1-7.56,1.53-11.12a14.9,14.9,0,0,1,.43-2.72c1.45-4.29,0-7.25-3.5-10.07s-6.14-6.28-9.17-9.46c4.63-.82,9.79-1.86,15-2.59,2.52-.35,4.06-1.28,5.08-3.74,2-4.83,4.36-9.52,6.56-14.25,1.2.14,1.26,1.12,1.62,1.79,2.23,4.13,4.54,8.22,6.56,12.45,1,2.13,2.46,2.85,4.67,3.06,5.3.51,10.58,1.22,15.86,1.84.29,1-.55,1.33-1,1.81-3.56,3.72-7.11,7.46-10.76,11.09a3.62,3.62,0,0,0-1,3.69c1,5.58,2.75,11,3,16.76Z" transform="translate(156.63 464.59)"/><path class="cls-2" d="M639.47,1427.15l.26.17c-.05,0-.13,0-.15,0a.64.64,0,0,1-.1-.18Z" transform="translate(156.63 464.59)"/><path class="cls-2" d="M685.94,1431.23c-.85-4-1.69-7.38-2.22-10.8a3.59,3.59,0,0,0-2.61-3.09c-3.14-1.25-6.23-2.65-10-4.27,3.12-1.77,5.68-3.49,8.45-4.73,2.58-1.15,3.39-2.94,3.46-5.57.08-2.91.48-5.82.81-9.48,3,2.73,5.53,4.91,7.88,7.3a4.17,4.17,0,0,0,4.46,1.17c3.26-.81,6.54-1.53,10.47-2.44-1.71,3.72-3.09,6.89-4.63,10a3.63,3.63,0,0,0,.24,4.08c1.58,2.37,3,4.86,4.42,7.31.31.52,1,1.1.43,1.68-.28.29-1,.22-1.57.17-2.92-.32-5.85-.6-8.74-1.08a3.16,3.16,0,0,0-3.35,1.19C691.15,1425.4,688.75,1428,685.94,1431.23Z" transform="translate(156.63 464.59)"/><path class="cls-2" d="M741.57,1307.95c-1.15,2.51-2,4.62-3.07,6.62a3.41,3.41,0,0,0,.2,4c1.3,1.87,2.38,3.89,3.85,6.36-2.59-.3-4.71-.45-6.8-.8A4.28,4.28,0,0,0,731,1326c-1.2,1.7-2.71,3.17-4.4,5.12-.54-2.52-1.11-4.52-1.38-6.57a4.26,4.26,0,0,0-3.17-4c-2-.65-3.83-1.62-6.25-2.67,2.37-1.37,4.28-2.58,6.28-3.58a3.64,3.64,0,0,0,2.29-3.66c0-2.17.38-4.33.65-7.1,1.94,1.76,3.62,3.11,5.09,4.66a4.07,4.07,0,0,0,4.66,1.26C736.82,1308.85,739,1308.52,741.57,1307.95Z" transform="translate(156.63 464.59)"/><text class="cls-4" transform="translate(1026.63 1422.36)">18562<tspan class="cls-5"><tspan x="90.76" y="72">points</tspan></tspan></text></svg>